<svg xmlns="http://www.w3.org/2000/svg" width="300" height="48" viewBox="0 0 300 48">
    <path fill="#E1BE83" d="M39.452 46.66H25.095V23.881c0-2.394-1.713-3.929-3.73-3.929-1.96 0-4.325 1.596-4.325 3.93V46.658H4.154V10.376L0 7.429C4.748 5.832 12.707 2.394 17.04 0v19.032c1.72-2.149 5.926-4.911 11.268-4.911 6.765 0 9.673 4.481 9.673 9.823v19.23c0 .578.49 1.74 1.47 3.485zm147.981 0h-14.356V23.881c0-2.394-1.714-3.929-3.731-3.929-1.959 0-4.325 1.596-4.325 3.93V46.658h-12.885V10.376l-4.155-2.947C152.73 5.832 160.69 2.394 165.021 0v19.032c1.721-2.149 5.927-4.911 11.268-4.911 6.765 0 9.673 4.481 9.673 9.823v19.23c0 .578.49 1.74 1.471 3.485zM70.835 41.241v2.273C67.978 45.973 64.823 48 58.038 48c-10.714 0-17.262-7.188-17.262-16.034 0-10.566 6.726-17.754 16.607-17.754 9.761 0 13.452 6.696 13.452 15.113H52.99c.773 9.706 6.177 14.129 11.118 14.129 2.38 0 5.059-.799 6.726-2.212zM56.773 27.415c2.872 0 3.2-.818 3.2-3.22 0-1.842-.328-6.382-3.2-6.382-2.872 0-3.2 4.54-3.2 6.382 0 2.402.328 3.22 3.2 3.22zM300 41.233v2.273c-2.857 2.457-6.012 4.485-12.797 4.485-10.714 0-17.261-7.188-17.261-16.034 0-10.566 6.726-17.754 16.606-17.754 9.762 0 13.452 6.696 13.452 15.112h-17.844c.774 9.707 6.178 14.13 11.118 14.13 2.381 0 5.06-.799 6.726-2.212zm-14.061-13.827c2.871 0 3.199-.819 3.199-3.22 0-1.842-.328-6.382-3.2-6.382-2.871 0-3.199 4.54-3.199 6.381 0 2.402.328 3.22 3.2 3.22zM107.25 40.962l1.425.303C108.023 43.9 106.123 48 100.011 48c-5.104 0-6.536-3.133-7.605-6.45-.89 3.071-4.384 6.45-11.03 6.45-5.935 0-9.2-2.642-9.2-7.618 0-5.528 5.393-9.583 18.865-13.576V20.97c0-3.01-1.602-4.055-3.382-4.055-1.603 0-4.147 1.72-4.147 4.423 0 1.29.237 2.273.415 3.563 0 1.66-1.899 4.178-4.807 4.178-3.205 0-4.748-2.335-4.748-5.038 0-4.423 4.095-9.829 14.837-9.829 11.158 0 14.719 5.898 14.719 11.55V40.75c0 .921.356 1.843 1.365 1.843.89 0 1.496-.506 1.957-1.632zM91.112 39.83V28.7c-4.514 1.834-6.076 6.36-6.076 9.846 0 2.813.868 4.098 2.951 4.098 1.823 0 3.125-1.162 3.125-2.814zm34.59 6.83h-14.82V10.376l-3.95-2.947c4.513-1.597 12.807-5.035 16.925-7.429v43.173c0 .552.615 1.714 1.846 3.486zm81.217 0h-14.821V10.376l-3.95-2.947c4.514-1.597 12.807-5.035 16.926-7.429v43.173c0 .552.615 1.714 1.845 3.486zm-58.992-3.76v2.274c-2.16 1.844-5.74 2.827-9.605 2.827-6.365 0-8.582-4.732-8.582-8.726V17.922h-3.07l16.142-14.168V15.43h5.115v2.492h-5.115v23.134c0 1.843 1.08 2.704 2.387 2.704.796 0 2.217-.369 2.728-.86zm71.309-29.19c-3.669 0-6.592-3.04-6.592-6.854 0-3.815 2.923-6.855 6.592-6.855 3.668 0 6.592 3.04 6.592 6.855 0 3.815-2.924 6.855-6.592 6.855zm8.676 32.95h-15.13V23.814l-4.164-2.955c4.759-1.601 12.738-5.05 17.08-7.451v29.765c0 .573.738 1.735 2.214 3.486zm41.062 0H254.15V23.814c0-2.401-1.713-3.94-3.73-3.94-1.959 0-4.325 1.6-4.325 3.94V46.66H233.21V23.814l-4.154-2.955c4.748-1.601 12.369-5.05 16.701-7.451v6.28c2.136-2.832 6.266-5.664 11.607-5.664 6.765 0 9.673 4.495 9.673 9.852v19.297c0 .563.646 1.725 1.937 3.486z"/>
</svg>
