<svg xmlns="http://www.w3.org/2000/svg" width="132" height="50" viewBox="0 0 132 50">
    <path fill="#FFF" d="M30.477 38.313v9.62h3.98V50h-6.36V38.313h2.38zm11.137 0v2.068h-2.548V50h-2.308v-9.62h-2.565v-2.067h7.421zm3.645 0v4.643h3.826v-4.643h2.337V50h-2.337v-4.976h-3.826V50h-2.32V38.313h2.32zm10.4 0v9.62h3.98V50h-6.362V38.313h2.381zm7.69 0V50h-2.12V38.313h2.12zm4.48 0l3.798 7.149v-7.149h2.325V50h-2.22l-3.955-7.447V50H65.47V38.313h2.359zm14.605 0v2.05h-4.13v2.681h4.013v2.032h-4.013v2.874h4.13V50h-6.362V38.313h6.362zm8.654 0l2.213 7.009 2.23-7.009h3.071V50h-2.264v-8.025L93.764 50h-.943l-2.54-8.025V50H88V38.313h3.088zm15.996 0v2.05h-4.13v2.681h4.014v2.032h-4.014v2.874h4.13V50h-6.361V38.313h6.361zm-104.764 0v4.643h3.825v-4.643h2.337V50H6.145v-4.976H2.32V50H0V38.313h2.32zm14.644 0v2.05h-4.13v2.681h4.013v2.032h-4.013v2.874h4.13V50h-6.362V38.313h6.362zm104.434 0V50h-2.12V38.313h2.12zm7.216-.065L132 49.935h-2.377l-.53-2.085h-3.728l-.53 2.085h-2.377l3.386-11.687h2.77zm-16.063 0c1.008 0 1.878.246 2.612.736.733.49 1.293 1.18 1.68 2.068.386.888.579 1.904.579 3.049 0 1.144-.19 2.158-.571 3.04-.381.882-.938 1.568-1.671 2.058-.734.49-1.61.736-2.629.736h-3.611V38.248h3.611zm-88.636 0l3.386 11.687h-2.377l-.53-2.085h-3.728l-.53 2.085h-2.377l3.386-11.687h2.77zm88.787 2.125h-1.377v7.437h1.377c.826 0 1.466-.339 1.92-1.018.452-.678.68-1.576.68-2.692 0-1.161-.224-2.073-.672-2.735-.448-.661-1.09-.992-1.928-.992zm14.394 0l-1.457 5.578h2.915l-1.458-5.578zm-104.698 0l-1.458 5.578h2.915l-1.457-5.578zM64.41.044c2.696-.128 2.3.047 3.785.227 3.92.477 7.448 3 9.744 6.016 1.679 2.204 1.893 4.935 1.835 7.58-.09 4.159-1.486 7.861-4.778 10.56-1.194.98-2.662 1.623-3.389 2.054-4.773 1.914-9.086 1.207-12.91-.525-2.566-1.16-4.286-3.257-5.25-5.988-.533-1.511-.81-3.018-1.112-4.588-.201-1.048-.1-2.166-.043-3.248.029-.556.254-1.101.393-1.65C54.11 4.863 58.62.32 64.411.043zm1.307 5.003l-.046.01-6.204 2.374c-.012.004-.024.01-.034.018-.065.047-.08.139-.033.204l.919 1.272v11.912c0 .081.065.146.146.146h5.259c.08 0 .146-.065.146-.146v-9.013c0-.218.177-.395.396-.395.219 0 .396.177.396.395v9.013c0 .081.065.146.146.146h5.936c.023 0 .045-.005.066-.015.072-.036.101-.124.065-.196l-.634-1.262v-5.668c0-3.283-2.62-3.74-4.185-3.74-1.043 0-1.859.366-2.186.61v-5.52c0-.017-.003-.035-.01-.052-.028-.075-.113-.113-.189-.084z"/>
</svg>
